<?xml version="1.0" standalone="no"?>
<!DOCTYPE svg PUBLIC "-//W3C//DTD SVG 20010904//EN"
 "http://www.w3.org/TR/2001/REC-SVG-20010904/DTD/svg10.dtd">
<svg version="1.0" xmlns="http://www.w3.org/2000/svg"
 width="801.000000pt" height="701.000000pt" viewBox="0 0 801.000000 701.000000"
 preserveAspectRatio="xMidYMid meet">

<g transform="translate(0.000000,701.000000) scale(0.100000,-0.100000)"
fill="#007FFF" stroke="none">
<path d="M6375 6791 c-28 -9 -64 -25 -80 -37 -17 -12 -47 -24 -68 -27 -20 -3
-44 -13 -53 -21 -8 -9 -33 -19 -54 -22 -21 -4 -41 -12 -43 -19 -3 -6 -27 -18
-54 -25 -26 -7 -53 -19 -59 -27 -7 -8 -29 -17 -50 -20 -22 -3 -48 -14 -59 -23
-11 -10 -36 -21 -55 -25 -19 -4 -44 -14 -55 -21 -11 -8 -30 -14 -43 -14 -13 0
-30 -7 -38 -15 -8 -8 -37 -21 -64 -29 -27 -8 -59 -24 -72 -35 -12 -12 -33 -21
-46 -21 -13 0 -35 -9 -49 -20 -14 -11 -41 -20 -59 -20 -22 0 -38 -7 -47 -20
-8 -12 -31 -24 -52 -27 -21 -3 -46 -14 -57 -25 -10 -10 -32 -18 -49 -18 -17 0
-43 -9 -58 -19 -15 -11 -43 -22 -64 -26 -20 -4 -37 -10 -37 -14 0 -9 -66 -41
-84 -41 -8 0 -19 -6 -25 -14 -7 -8 -26 -17 -44 -20 -18 -3 -49 -15 -70 -26
-20 -11 -47 -20 -60 -20 -13 0 -32 -9 -42 -20 -10 -11 -28 -20 -39 -20 -12 0
-39 -11 -61 -25 -22 -13 -49 -25 -61 -25 -11 0 -35 -11 -54 -25 -20 -14 -47
-25 -66 -25 -18 0 -34 -6 -37 -14 -3 -7 -26 -19 -52 -25 -26 -7 -54 -18 -61
-26 -8 -8 -31 -17 -52 -21 -20 -4 -48 -15 -62 -24 -14 -10 -39 -21 -57 -24
-17 -4 -37 -14 -44 -22 -6 -8 -24 -14 -39 -14 -15 0 -44 -11 -64 -25 -20 -14
-48 -25 -61 -25 -13 0 -30 -6 -37 -13 -7 -8 -31 -20 -53 -27 -22 -7 -52 -21
-67 -31 -15 -11 -43 -19 -67 -19 -28 0 -41 -4 -41 -13 0 -15 -41 -37 -68 -37
-10 0 -25 -8 -33 -19 -9 -10 -35 -21 -59 -25 -23 -4 -48 -13 -56 -21 -8 -8
-31 -17 -52 -21 -20 -4 -42 -13 -50 -20 -7 -8 -30 -18 -50 -24 -20 -6 -46 -17
-56 -25 -11 -8 -30 -15 -43 -15 -13 0 -41 -11 -61 -25 -20 -14 -48 -25 -63
-25 -14 0 -34 -9 -44 -20 -23 -26 -36 -25 -69 3 -26 22 -48 56 -81 125 -8 17
-20 32 -25 32 -5 0 -15 19 -22 43 -7 23 -17 47 -23 52 -27 25 -65 86 -65 104
0 12 -5 21 -11 21 -5 0 -19 19 -30 43 -12 23 -34 65 -50 92 -15 28 -34 62 -41
78 -7 15 -16 27 -21 27 -4 0 -16 20 -27 45 -11 25 -23 45 -28 45 -5 0 -15 14
-22 31 -17 39 -91 75 -175 84 -49 5 -67 3 -100 -14 -29 -16 -58 -21 -112 -21
-40 0 -81 -4 -91 -10 -42 -23 -118 -40 -183 -40 -44 0 -78 -5 -92 -14 -23 -16
-127 -36 -187 -36 -19 0 -53 -9 -75 -20 -29 -14 -62 -19 -122 -20 -62 0 -90
-5 -115 -19 -18 -11 -61 -22 -96 -26 -46 -5 -65 -12 -73 -26 -5 -10 -15 -19
-22 -19 -32 0 -87 -115 -87 -182 0 -41 41 -116 89 -162 l41 -40 149 2 c128 1
154 4 187 21 26 14 69 23 129 27 60 4 96 12 108 23 13 10 47 17 110 21 62 4
103 12 127 24 24 13 63 21 126 24 83 4 93 3 113 -17 11 -11 21 -31 21 -44 0
-12 9 -28 20 -35 11 -7 20 -17 20 -24 0 -6 11 -26 25 -44 14 -18 25 -38 25
-44 0 -6 11 -26 25 -44 14 -18 25 -40 25 -49 0 -9 6 -20 13 -24 6 -4 20 -24
29 -43 10 -19 22 -42 28 -50 30 -46 92 -149 103 -175 8 -16 21 -36 30 -44 10
-7 17 -21 17 -30 0 -9 9 -27 20 -41 11 -14 20 -29 20 -34 0 -4 11 -21 25 -38
14 -16 25 -37 25 -46 0 -9 12 -28 25 -41 14 -13 25 -31 25 -41 0 -10 7 -23 15
-30 8 -7 15 -17 15 -22 0 -5 11 -24 25 -42 14 -18 25 -40 25 -48 0 -8 11 -25
24 -38 14 -12 28 -35 31 -50 3 -16 13 -31 21 -34 8 -3 14 -15 14 -26 0 -11 4
-20 9 -20 5 0 11 -8 15 -17 6 -19 20 -43 49 -82 9 -13 17 -30 17 -38 0 -8 11
-28 25 -45 14 -16 25 -37 25 -47 0 -10 8 -25 18 -35 11 -9 32 -42 47 -74 16
-31 39 -70 52 -85 13 -16 23 -33 23 -38 0 -6 11 -25 25 -43 14 -18 25 -38 25
-43 0 -6 7 -16 15 -23 8 -7 15 -19 15 -27 0 -8 11 -28 25 -45 14 -16 25 -38
25 -48 0 -11 6 -23 14 -27 7 -4 22 -24 32 -44 35 -69 97 -174 108 -184 6 -5
19 -26 29 -45 10 -19 29 -53 42 -75 13 -22 32 -53 41 -70 30 -53 79 -114 95
-120 9 -3 27 -14 39 -25 20 -17 38 -20 136 -20 90 0 115 3 121 15 5 8 33 21
62 29 29 7 56 18 60 24 4 6 25 14 48 18 23 3 50 15 59 25 9 11 27 19 38 19 12
0 35 9 53 19 17 11 51 25 75 31 23 7 51 18 62 26 11 8 29 14 39 14 10 0 31 9
46 19 15 11 45 23 66 26 22 4 48 16 58 26 10 11 31 19 47 19 16 0 35 6 42 13
23 23 55 37 85 37 16 0 36 9 45 19 9 11 34 23 55 27 21 4 43 13 48 19 6 7 33
18 60 24 28 7 57 18 65 26 8 7 34 18 57 24 23 7 45 16 48 21 3 6 16 10 28 10
12 0 40 11 62 25 22 13 53 25 68 25 16 0 40 9 54 20 14 11 41 22 60 26 19 4
37 13 40 20 3 7 31 19 64 25 34 7 59 17 59 24 0 13 30 25 67 25 12 0 26 6 30
13 9 16 66 37 99 37 14 0 24 6 24 14 0 14 29 26 66 26 12 0 27 7 34 15 7 8 28
17 49 21 20 4 48 15 63 25 14 11 35 19 46 19 10 0 36 11 56 25 20 14 45 25 55
25 11 0 39 11 62 25 24 14 56 25 70 25 14 0 34 9 44 20 11 12 31 20 50 20 20
0 42 9 59 25 18 16 39 25 61 25 19 0 38 6 42 14 4 8 24 21 43 30 53 25 110 68
110 83 0 7 6 13 14 13 7 0 20 23 29 53 8 28 21 66 28 83 11 27 9 37 -9 76 -12
24 -22 49 -22 54 -1 14 -43 59 -63 67 -9 3 -17 11 -17 16 0 18 -102 34 -191
29 -65 -4 -96 -11 -122 -27 -19 -11 -46 -21 -61 -21 -14 0 -26 -4 -26 -9 0
-13 -64 -41 -92 -41 -14 0 -33 -8 -42 -19 -9 -10 -34 -21 -56 -25 -21 -3 -46
-13 -55 -23 -9 -9 -39 -18 -66 -21 -32 -3 -49 -9 -49 -18 0 -7 -19 -18 -42
-25 -24 -6 -50 -17 -58 -24 -8 -7 -35 -18 -60 -25 -25 -7 -52 -18 -60 -25 -8
-7 -32 -15 -52 -19 -21 -4 -38 -11 -38 -16 0 -9 -84 -40 -111 -40 -9 0 -19 -7
-23 -15 -3 -9 -18 -15 -40 -15 -24 0 -43 -8 -60 -25 -15 -15 -36 -25 -54 -25
-16 0 -40 -8 -53 -18 -13 -11 -39 -22 -57 -25 -19 -4 -46 -16 -62 -27 -15 -11
-41 -20 -57 -20 -16 0 -36 -8 -45 -19 -8 -10 -36 -21 -62 -25 -25 -4 -46 -11
-46 -16 0 -5 -17 -14 -37 -20 -56 -17 -93 -34 -93 -41 0 -4 -20 -10 -44 -13
-24 -4 -50 -14 -56 -21 -7 -8 -18 -15 -25 -15 -6 0 -34 -11 -61 -25 -27 -14
-58 -25 -69 -25 -11 0 -38 -12 -60 -25 -22 -14 -49 -25 -61 -25 -11 0 -29 -9
-39 -20 -11 -12 -31 -20 -50 -20 -18 0 -46 -11 -65 -25 -19 -14 -47 -25 -62
-25 -15 0 -36 -8 -47 -19 -10 -10 -36 -21 -57 -25 -21 -4 -49 -16 -62 -27 -19
-14 -41 -19 -88 -19 l-64 0 -30 48 c-16 26 -30 55 -30 64 0 10 -9 22 -19 28
-11 5 -22 24 -26 42 -4 18 -15 40 -25 48 -10 8 -21 31 -25 50 -8 47 21 86 78
101 23 6 52 19 65 30 14 10 34 19 46 19 12 0 37 11 56 25 20 15 47 25 67 25
19 0 40 8 50 19 10 11 35 22 55 26 20 4 39 13 42 21 3 8 20 14 40 14 19 0 37
4 40 9 3 5 32 19 63 31 32 13 65 29 73 35 8 7 31 15 51 19 21 4 42 13 49 21 7
8 28 17 48 21 19 4 51 17 70 30 19 13 47 24 61 24 15 0 34 9 44 20 10 12 29
20 47 20 17 0 37 9 48 20 11 12 37 23 58 27 22 3 46 11 54 18 8 7 34 19 58 26
23 7 47 18 53 26 6 7 19 13 29 13 10 0 47 13 82 30 34 16 70 30 78 30 8 0 24
7 34 15 11 8 28 15 37 15 10 0 31 11 47 25 17 14 42 25 57 25 15 0 40 9 56 21
17 12 48 23 69 26 24 4 40 11 40 19 0 8 16 16 42 20 22 4 50 16 61 27 11 11
39 22 64 25 28 3 47 11 53 23 6 11 27 20 56 25 25 3 48 12 51 20 2 7 22 15 44
19 21 4 41 10 44 15 3 5 34 18 70 30 36 12 65 26 65 31 0 5 10 9 23 9 13 0 38
11 57 25 19 14 46 25 61 25 14 0 32 6 38 14 6 7 33 19 59 26 26 7 52 19 58 27
7 8 29 17 50 20 22 3 48 14 59 24 11 10 40 22 64 28 24 5 47 14 50 19 3 6 19
14 34 17 15 4 39 21 53 39 14 17 33 40 42 51 12 14 18 44 20 105 4 91 -7 124
-65 187 -13 13 -23 28 -23 33 0 6 -4 10 -10 10 -5 0 -20 10 -31 21 -31 31
-175 37 -228 10 -99 -50 -150 -71 -174 -71 -14 0 -30 -6 -34 -14 -10 -17 -46
-36 -70 -36 -10 0 -29 -9 -43 -20 -14 -11 -39 -20 -57 -20 -21 0 -41 -9 -57
-25 -17 -17 -36 -25 -61 -25 -22 0 -34 -4 -32 -12 1 -7 -19 -17 -46 -24 -26
-7 -67 -22 -91 -33 -23 -12 -49 -21 -58 -21 -9 0 -21 -7 -28 -14 -6 -8 -34
-22 -61 -31 -27 -9 -51 -21 -54 -26 -4 -5 -18 -9 -32 -9 -13 0 -38 -9 -54 -21
-17 -12 -48 -23 -69 -26 -24 -3 -40 -11 -40 -19 0 -7 -17 -16 -37 -20 -21 -4
-54 -18 -73 -30 -21 -15 -49 -24 -72 -24 -26 0 -38 -4 -38 -14 0 -14 -49 -36
-80 -36 -10 0 -20 -6 -23 -14 -3 -7 -25 -18 -50 -24 -24 -7 -50 -18 -56 -26
-7 -8 -27 -18 -44 -21 -31 -6 -83 -28 -159 -66 -20 -11 -46 -19 -58 -19 -11 0
-31 -9 -43 -20 -11 -11 -38 -23 -59 -26 -21 -4 -49 -17 -63 -30 -15 -13 -37
-24 -51 -24 -14 0 -37 -9 -51 -20 -14 -11 -40 -20 -58 -20 -19 0 -39 -8 -50
-20 -9 -10 -37 -22 -61 -26 -24 -3 -44 -10 -44 -14 0 -5 -22 -16 -49 -25 -27
-9 -55 -22 -61 -30 -6 -8 -31 -17 -55 -21 -24 -3 -46 -12 -49 -19 -2 -7 -27
-18 -55 -25 -27 -6 -55 -18 -62 -26 -6 -8 -22 -14 -35 -14 -13 0 -40 -11 -60
-25 -20 -14 -47 -25 -58 -25 -12 0 -31 -7 -42 -15 -10 -8 -36 -20 -58 -26 -21
-6 -48 -19 -59 -30 -12 -11 -35 -19 -53 -19 -18 0 -36 -4 -39 -10 -12 -19 -74
22 -89 59 -7 20 -23 45 -35 55 -12 11 -21 29 -21 42 0 13 -11 34 -25 48 -14
14 -25 34 -25 45 0 11 -6 24 -13 28 -25 15 -27 43 -7 63 11 11 26 20 33 20 8
0 24 9 37 20 13 11 37 20 54 20 19 0 38 8 49 20 9 11 27 20 39 20 13 0 38 9
56 20 18 11 38 20 45 20 7 0 39 13 72 30 33 16 68 30 77 30 9 0 19 4 22 9 4 5
31 17 61 26 30 10 60 24 66 31 6 8 28 14 48 14 25 0 40 6 48 19 7 11 29 22 53
26 23 4 44 13 47 20 2 8 27 19 55 25 28 6 56 17 62 25 6 9 29 18 51 22 22 3
43 12 48 19 4 7 22 16 40 19 17 4 48 16 67 26 19 9 73 32 120 49 47 18 89 38
93 46 4 8 20 14 35 14 15 0 45 11 67 25 22 13 55 25 73 25 19 0 35 6 38 15 3
8 25 20 48 26 22 6 49 18 58 26 9 8 35 19 57 24 23 5 50 18 61 29 12 12 33 20
55 20 21 0 38 6 41 14 3 8 26 19 51 26 26 6 55 18 67 26 11 7 26 14 34 14 7 0
34 10 60 22 26 12 55 23 66 25 10 2 29 12 43 23 14 11 32 20 40 20 7 0 36 11
63 25 27 14 61 25 75 25 14 0 28 6 31 14 3 8 26 19 52 26 25 6 51 18 57 27 6
8 32 19 58 24 25 4 55 17 67 29 12 12 33 20 55 20 24 0 35 5 35 15 0 8 6 15
13 16 44 2 108 27 209 80 20 10 44 19 53 19 9 0 28 9 42 20 14 11 35 20 47 20
11 0 41 11 65 25 23 14 55 25 70 25 15 0 34 9 44 20 9 11 28 20 42 20 14 0 34
9 44 19 10 10 30 22 43 26 34 11 46 23 53 56 4 16 11 29 15 29 16 0 32 84 27
139 -4 33 -13 61 -26 75 -10 11 -21 32 -23 46 -2 14 -13 29 -25 35 -13 5 -23
14 -23 20 0 10 -145 66 -165 64 -5 -1 -33 -8 -60 -18z"/>
<path d="M6553 3730 c-35 -16 -63 -33 -63 -38 0 -5 -11 -15 -25 -22 -28 -15
-65 -84 -65 -120 0 -13 -7 -31 -15 -40 -9 -10 -18 -33 -21 -52 -7 -38 12 -118
26 -118 6 0 10 -7 10 -16 0 -8 11 -32 25 -52 14 -20 25 -42 25 -49 0 -7 5 -13
12 -13 6 0 26 -11 44 -25 18 -14 43 -25 57 -25 13 0 45 -7 72 -16 39 -14 52
-15 68 -5 11 7 44 15 73 18 30 3 54 10 54 15 0 5 16 18 36 30 23 14 45 40 65
80 29 57 30 63 27 184 -2 111 -5 129 -24 155 -23 31 -71 69 -119 95 -16 8 -41
22 -55 29 -43 25 -136 18 -207 -15z"/>
<path d="M4520 3022 c-19 -10 -51 -21 -71 -25 -36 -5 -129 -61 -129 -78 0 -5
-7 -9 -15 -9 -13 0 -16 -5 -14 -26 0 -3 -11 -14 -25 -25 -15 -11 -26 -29 -26
-39 0 -10 -7 -25 -15 -34 -8 -8 -20 -38 -25 -67 -6 -29 -17 -63 -25 -76 -19
-28 -19 -67 -1 -96 8 -12 20 -49 26 -82 7 -33 18 -64 26 -68 8 -4 14 -14 14
-21 0 -7 11 -23 25 -36 14 -13 25 -32 25 -42 0 -10 8 -21 18 -25 9 -3 31 -16
48 -29 17 -13 43 -26 57 -29 14 -4 31 -13 38 -21 17 -21 291 -20 312 1 8 7 28
17 43 21 16 4 36 13 44 20 54 49 90 87 90 95 0 10 43 78 67 104 15 17 18 39
18 153 0 112 -3 136 -16 145 -9 7 -20 27 -23 45 -4 17 -16 38 -26 45 -10 7
-22 25 -25 40 -4 15 -17 33 -29 39 -11 6 -43 30 -70 52 -83 70 -247 105 -316
68z"/>
<path d="M262 1393 l-72 -78 0 -146 0 -146 71 -74 70 -73 92 -3 c256 -9 243
-7 279 -42 l33 -32 3 -122 c4 -138 -5 -182 -47 -214 -24 -19 -45 -22 -156 -28
-141 -7 -225 0 -225 19 0 7 -13 22 -30 34 -16 13 -30 29 -30 36 0 8 -7 16 -15
20 -11 4 -15 20 -15 55 0 50 -13 67 -45 55 -12 -5 -13 -18 -8 -67 8 -81 19
-105 74 -164 83 -88 83 -88 261 -87 l157 0 70 71 c39 39 71 74 71 78 0 4 6 12
13 20 10 9 13 48 12 146 -2 142 -11 176 -56 200 -11 5 -19 16 -19 24 0 8 -6
15 -13 15 -8 0 -20 11 -27 25 -7 14 -22 25 -32 25 -10 0 -18 3 -18 8 0 4 -53
7 -118 7 -146 -1 -203 13 -249 59 -32 32 -35 40 -40 114 -8 106 3 173 27 179
11 3 22 13 25 23 10 32 82 50 197 50 119 0 145 -8 198 -58 32 -31 35 -39 38
-103 4 -69 4 -69 33 -69 l29 0 0 84 0 84 -73 76 -73 76 -160 0 -159 0 -73 -77z"/>
<path d="M1140 1441 c0 -27 5 -32 39 -41 32 -8 40 -15 45 -41 3 -17 6 -226 6
-463 0 -472 0 -471 -58 -478 -24 -3 -27 -8 -30 -45 l-3 -43 141 1 141 0 -3 42
c-3 37 -6 42 -30 45 -14 2 -38 14 -51 28 -25 24 -25 26 -25 209 0 160 2 186
17 199 14 13 58 16 263 17 136 0 252 -2 258 -6 6 -4 10 -79 10 -208 0 -222 -1
-225 -63 -241 -24 -6 -27 -11 -27 -46 l0 -41 138 3 137 3 3 38 c3 33 1 37 -21
37 -13 0 -37 12 -53 27 l-29 27 -1 433 c-2 394 0 435 16 465 12 23 27 35 50
39 41 9 54 22 45 48 -6 20 -13 21 -146 21 l-139 0 0 -30 c0 -26 5 -31 39 -40
21 -5 42 -17 45 -26 3 -9 6 -102 6 -208 0 -150 -3 -196 -14 -212 -13 -18 -29
-19 -223 -20 -269 -2 -269 -2 -293 49 -22 46 -26 87 -9 104 9 9 9 23 0 55 -6
24 -10 75 -7 113 6 113 19 137 75 149 38 8 42 12 39 35 l-3 26 -142 3 -143 3
0 -30z"/>
<path d="M2520 1462 c0 -4 -29 -39 -65 -77 l-66 -70 3 -416 3 -416 74 -74 73
-74 194 0 194 0 51 53 c28 28 55 52 60 52 5 0 9 7 9 15 0 8 6 15 14 15 7 0 16
10 20 23 8 29 8 801 0 821 -3 9 -12 16 -20 16 -8 0 -14 5 -14 11 0 6 -11 20
-25 31 -14 11 -25 26 -25 34 0 8 -6 14 -14 14 -7 0 -21 11 -30 25 l-16 25
-210 0 c-116 0 -210 -3 -210 -8z m392 -97 c96 -42 96 -43 97 -459 1 -231 -2
-357 -9 -361 -5 -3 -10 -14 -10 -23 0 -10 -17 -33 -37 -52 l-37 -35 -189 0
-189 0 -23 28 c-13 15 -28 27 -33 27 -19 0 -22 69 -22 437 0 358 1 375 19 380
10 2 24 16 30 29 6 13 19 24 29 24 10 0 22 4 28 10 21 21 295 17 346 -5z"/>
<path d="M3400 1441 c0 -25 4 -29 38 -35 27 -4 43 -14 60 -39 22 -33 22 -34
22 -464 0 -479 6 -441 -74 -483 -37 -20 -46 -30 -46 -51 0 -15 6 -29 13 -32
20 -7 181 -9 245 -1 58 6 59 7 58 37 -1 30 -4 32 -53 42 -29 5 -57 15 -62 20
-12 12 -21 232 -12 295 12 87 6 84 210 90 l180 5 43 45 c24 25 58 56 76 70
l32 25 0 173 0 173 -70 69 c-38 38 -70 74 -70 80 0 7 -96 10 -295 10 l-295 0
0 -29z m563 -76 c51 -22 94 -74 102 -123 4 -24 4 -88 0 -143 -7 -94 -9 -101
-39 -132 -76 -76 -77 -76 -220 -76 -153 0 -203 6 -210 26 -12 31 -15 136 -8
282 l7 154 32 17 c26 14 54 16 167 13 87 -3 148 -9 169 -18z"/>
<path d="M4380 1440 c0 -26 4 -30 28 -30 35 0 68 -23 87 -60 13 -24 15 -97 15
-459 l0 -430 -27 -19 c-16 -11 -39 -23 -53 -27 -14 -4 -31 -12 -37 -17 -18
-15 -16 -55 3 -62 9 -3 155 -6 325 -6 l309 0 0 118 c0 64 -5 124 -10 132 -7
11 -10 4 -10 -26 0 -63 -11 -105 -29 -112 -9 -3 -19 -10 -23 -16 -5 -7 -64
-11 -166 -11 -134 0 -162 3 -185 18 l-27 17 0 446 c0 482 2 502 53 506 12 1
29 2 37 4 8 1 21 2 28 3 6 1 12 14 12 31 l0 30 -165 0 -165 0 0 -30z"/>
<path d="M5180 1441 c0 -19 6 -32 18 -36 32 -11 69 -52 82 -91 7 -21 19 -48
26 -59 8 -11 14 -28 14 -37 0 -10 11 -35 24 -56 13 -20 27 -54 30 -74 4 -21
11 -38 16 -38 5 0 14 -19 21 -42 6 -23 19 -53 30 -66 10 -14 19 -36 19 -50 0
-14 7 -30 16 -36 8 -6 20 -32 25 -56 6 -25 18 -53 27 -63 13 -15 18 -43 20
-134 2 -63 1 -125 -2 -137 -6 -26 -44 -46 -85 -46 -36 0 -53 -21 -49 -57 l3
-28 163 -3 c177 -3 181 -1 168 53 -5 18 -13 25 -32 25 -14 0 -41 12 -60 26
l-34 26 0 123 c0 94 3 125 14 134 8 7 17 30 21 51 4 21 13 44 21 51 8 6 19 31
25 55 6 24 17 49 25 55 8 6 14 19 14 28 0 9 11 34 25 56 13 22 25 52 25 68 0
15 8 35 18 45 9 9 23 40 30 67 7 28 19 55 26 60 7 6 16 26 20 46 3 20 17 45
31 57 14 12 25 25 25 30 0 4 13 13 30 19 26 10 29 14 21 35 -8 22 -11 23 -132
23 l-124 0 -3 -26 c-3 -23 1 -27 40 -35 l43 -9 3 -61 c2 -53 0 -63 -23 -88
-14 -15 -25 -39 -25 -54 0 -15 -9 -40 -20 -57 -11 -16 -20 -38 -20 -47 0 -15
-26 -73 -62 -138 -9 -17 -15 -30 -34 -77 -11 -28 -18 -33 -48 -33 -39 0 -66
28 -66 67 0 13 -9 32 -20 43 -11 11 -23 38 -26 59 -4 22 -15 48 -25 57 -11 9
-19 29 -19 44 0 15 -9 35 -19 44 -11 10 -23 35 -26 57 -4 21 -13 43 -22 47
-19 11 -28 79 -14 115 6 16 18 27 30 27 37 0 51 12 51 41 l0 29 -125 0 -125 0
0 -29z"/>
<path d="M6363 1463 c-7 -2 -13 -9 -13 -14 0 -5 -20 -29 -45 -53 -25 -25 -45
-50 -45 -55 0 -6 -6 -10 -12 -8 -10 1 -14 -37 -16 -160 l-2 -163 51 -50 c28
-27 55 -50 60 -50 5 0 9 -6 9 -14 0 -23 24 -26 178 -25 81 0 156 -3 167 -7 11
-4 39 -26 61 -50 41 -42 41 -44 46 -131 6 -113 -3 -145 -59 -202 l-46 -46
-130 -3 c-167 -5 -189 0 -237 48 -42 42 -48 58 -52 130 -3 41 -5 45 -28 45
-25 0 -25 -2 -28 -87 l-3 -87 60 -58 c33 -32 68 -65 78 -73 14 -12 51 -15 168
-17 83 -1 160 0 171 3 11 3 40 24 65 47 24 22 47 40 52 39 4 -1 7 5 7 13 0 9
11 27 25 41 24 24 25 28 25 178 l0 154 -56 56 c-31 31 -60 56 -65 56 -5 0 -9
3 -9 8 0 18 -55 28 -169 29 -68 1 -126 4 -129 7 -3 4 -18 6 -34 6 -37 0 -102
65 -111 110 -20 98 2 210 50 252 45 39 80 48 192 48 116 0 149 -8 190 -47 53
-51 71 -85 71 -134 0 -51 8 -63 35 -53 15 6 17 19 13 92 -3 53 -9 87 -16 90
-7 2 -12 12 -12 23 0 10 -6 19 -13 19 -7 0 -32 23 -56 50 l-43 50 -167 -1
c-91 0 -172 -3 -178 -6z"/>
<path d="M7080 1358 c0 -118 7 -145 34 -135 12 5 16 21 16 69 1 96 14 109 125
114 91 5 144 -6 165 -32 8 -9 12 -52 12 -127 -1 -61 -1 -266 -1 -454 l-1 -341
-34 -21 c-19 -12 -50 -21 -73 -21 -23 0 -46 -6 -52 -14 -14 -16 -11 -47 4 -58
13 -10 367 -10 381 0 6 4 14 16 18 28 7 24 -26 44 -75 44 -16 0 -43 10 -59 22
l-30 22 0 453 c0 440 1 454 20 473 11 11 26 21 33 21 126 14 222 6 233 -19 4
-9 10 -48 13 -87 5 -61 8 -70 26 -70 19 0 20 8 23 123 l3 122 -391 0 -390 0 0
-112z"/>
</g>
</svg>
